ffmpeg started on 2025-05-05 at 10:44:23
Report written to "D:\Convert\FFMetrics\reports\ssim_report-6.txt"
Log level: 32
Command line:
ffmpeg -hide_banner -nostdin -i "G:\\\xc0\xed\xe8\xec\xe5\\\xce\xed\xe3\xee\xe8\xed\xe3\xe8\\!_35_\xcb\xe5\xf2\xee_2024\\JamClub-1\\\xcb\xfe\xe4\xe8 \xef\xee\xe4\xe7\xe5\xec\xe5\xeb\xfc\xff\\JamClub_Dungeon_no_Naka_no_Hito_11_1080p_HEVC.mkv" -i "G:\\\xc0\xed\xe8\xec\xe5\\\xce\xed\xe3\xee\xe8\xed\xe3\xe8\\!_35_\xcb\xe5\xf2\xee_2024\\JamClub-1\\\xcb\xfe\xe4\xe8 \xef\xee\xe4\xe7\xe5\xec\xe5\xeb\xfc\xff\\JamClub_Dungeon_no_Naka_no_Hito_11_1080p.mp4" -lavfi "[0:v]settb=AVTB,setpts=PTS-STARTPTS,format=pix_fmts=yuv420p10,fps=24000/1001,scale=1920:1080:flags=bicubic[main];[1:v]settb=AVTB,setpts=PTS-STARTPTS,format=pix_fmts=yuv420p,fps=24000/1001,scale=1920:1080:flags=bicubic[ref];[main][ref]ssim=eof_action=endall:stats_file='D\\:/Convert/FFMetrics/logs/ssim_logfile-6.txt'" -f null -
Input #0, matroska,webm, from 'G:\Аниме\Онгоинги\!_35_Лето_2024\JamClub-1\Люди подземелья\JamClub_Dungeon_no_Naka_no_Hito_11_1080p_HEVC.mkv':
  Metadata:
    COMPATIBLE_BRANDS: isomiso2avc1mp41
    MAJOR_BRAND     : isom
    MINOR_VERSION   : 512
    ENCODER         : Lavf61.7.100
  Duration: 00:24:36.74, start: -0.021000, bitrate: 1245 kb/s
  Stream #0:0: Video: hevc (Main 10), yuv420p10le(tv, bt709, progressive), 1920x1080 [SAR 1:1 DAR 16:9], 23.98 fps, 23.98 tbr, 1k tbn (default)
      Metadata:
        HANDLER_NAME    : VideoHandler
        VENDOR_ID       : [0][0][0][0]
        ENCODER         : Lavc61.19.100 libx265
        BPS             : 1047660
        DURATION        : 00:24:36.599708333
        NUMBER_OF_FRAMES: 35403
        NUMBER_OF_BYTES : 193371865
        _STATISTICS_WRITING_APP: mkvpropedit v66.0.0 ('Josie') 64-bit
        _STATISTICS_WRITING_DATE_UTC: 2025-05-04 14:48:18
        _STATISTICS_TAGS: BPS DURATION NUMBER_OF_FRAMES NUMBER_OF_BYTES
  Stream #0:1(eng): Audio: aac (LC), 48000 Hz, stereo, fltp (default)
      Metadata:
        HANDLER_NAME    : SoundHandler
        VENDOR_ID       : [0][0][0][0]
        ENCODER         : Lavc61.19.100 aac
        BPS             : 194315
        DURATION        : 00:24:36.717000000
        NUMBER_OF_FRAMES: 69222
        NUMBER_OF_BYTES : 35868608
        _STATISTICS_WRITING_APP: mkvpropedit v66.0.0 ('Josie') 64-bit
        _STATISTICS_WRITING_DATE_UTC: 2025-05-04 14:48:18
        _STATISTICS_TAGS: BPS DURATION NUMBER_OF_FRAMES NUMBER_OF_BYTES
Input #1, mov,mp4,m4a,3gp,3g2,mj2, from 'G:\Аниме\Онгоинги\!_35_Лето_2024\JamClub-1\Люди подземелья\JamClub_Dungeon_no_Naka_no_Hito_11_1080p.mp4':
  Metadata:
    major_brand     : isom
    minor_version   : 512
    compatible_brands: isomiso2avc1mp41
    encoder         : Lavf60.16.100
  Duration: 00:24:36.72, start: 0.000000, bitrate: 4364 kb/s
  Stream #1:0[0x1](und): Video: h264 (High) (avc1 / 0x31637661), yuv420p(tv, bt709, progressive), 1920x1080 [SAR 1:1 DAR 16:9], 4166 kb/s, 23.98 fps, 23.98 tbr, 90k tbn (default)
      Metadata:
        handler_name    : VideoHandler
        vendor_id       : [0][0][0][0]
  Stream #1:1[0x2](eng): Audio: aac (LC) (mp4a / 0x6134706D), 48000 Hz, stereo, fltp, 191 kb/s (default)
      Metadata:
        handler_name    : SoundHandler
        vendor_id       : [0][0][0][0]
Stream mapping:
  Stream #0:0 (hevc) -> settb:default
  Stream #1:0 (h264) -> settb:default
  ssim:default -> Stream #0:0 (wrapped_avframe)
  Stream #0:1 -> #0:1 (aac (native) -> pcm_s16le (native))
Output #0, null, to 'pipe:':
  Metadata:
    COMPATIBLE_BRANDS: isomiso2avc1mp41
    MAJOR_BRAND     : isom
    MINOR_VERSION   : 512
    encoder         : Lavf61.7.100
  Stream #0:0: Video: wrapped_avframe, yuv420p10le(tv, bt709, progressive), 1920x1080 [SAR 1:1 DAR 16:9], q=2-31, 200 kb/s, 23.98 fps, 23.98 tbn
      Metadata:
        encoder         : Lavc61.19.100 wrapped_avframe
  Stream #0:1(eng): Audio: pcm_s16le, 48000 Hz, stereo, s16, 1536 kb/s (default)
      Metadata:
        HANDLER_NAME    : SoundHandler
        VENDOR_ID       : [0][0][0][0]
        _STATISTICS_TAGS: BPS DURATION NUMBER_OF_FRAMES NUMBER_OF_BYTES
        BPS             : 194315
        DURATION        : 00:24:36.717000000
        NUMBER_OF_FRAMES: 69222
        NUMBER_OF_BYTES : 35868608
        _STATISTICS_WRITING_APP: mkvpropedit v66.0.0 ('Josie') 64-bit
        _STATISTICS_WRITING_DATE_UTC: 2025-05-04 14:48:18
        encoder         : Lavc61.19.100 pcm_s16le
frame=  115 fps=0.0 q=-0.0 size=N/A time=00:00:04.79 bitrate=N/A speed=9.32x    frame=  273 fps=263 q=-0.0 size=N/A time=00:00:11.38 bitrate=N/A speed=  11x    frame=  462 fps=299 q=-0.0 size=N/A time=00:00:19.26 bitrate=N/A speed=12.5x    frame=  660 fps=319 q=-0.0 size=N/A time=00:00:27.52 bitrate=N/A speed=13.3x    frame=  885 fps=344 q=-0.0 size=N/A time=00:00:36.91 bitrate=N/A speed=14.3x    frame= 1145 fps=370 q=-0.0 size=N/A time=00:00:47.75 bitrate=N/A speed=15.4x    frame= 1402 fps=389 q=-0.0 size=N/A time=00:00:58.47 bitrate=N/A speed=16.2x    frame= 1663 fps=404 q=-0.0 size=N/A time=00:01:09.36 bitrate=N/A speed=16.8x    frame= 1867 fps=402 q=-0.0 size=N/A time=00:01:17.86 bitrate=N/A speed=16.8x    frame= 2096 fps=407 q=-0.0 size=N/A time=00:01:27.42 bitrate=N/A speed=  17x    frame= 2301 fps=406 q=-0.0 size=N/A time=00:01:35.97 bitrate=N/A speed=16.9x    frame= 2487 fps=402 q=-0.0 size=N/A time=00:01:43.72 bitrate=N/A speed=16.8x    frame= 2709 fps=405 q=-0.0 size=N/A time=00:01:52.98 bitrate=N/A speed=16.9x    frame= 2921 fps=404 q=-0.0 size=N/A time=00:02:01.83 bitrate=N/A speed=16.9x    frame= 3137 fps=406 q=-0.0 size=N/A time=00:02:10.83 bitrate=N/A speed=16.9x    frame= 3326 fps=403 q=-0.0 size=N/A time=00:02:18.72 bitrate=N/A speed=16.8x    frame= 3499 fps=399 q=-0.0 size=N/A time=00:02:25.93 bitrate=N/A speed=16.7x    frame= 3687 fps=397 q=-0.0 size=N/A time=00:02:33.77 bitrate=N/A speed=16.6x    frame= 3915 fps=400 q=-0.0 size=N/A time=00:02:43.28 bitrate=N/A speed=16.7x    frame= 4160 fps=403 q=-0.0 size=N/A time=00:02:53.50 bitrate=N/A speed=16.8x    frame= 4400 fps=407 q=-0.0 size=N/A time=00:03:03.51 bitrate=N/A speed=  17x    frame= 4675 fps=412 q=-0.0 size=N/A time=00:03:14.98 bitrate=N/A speed=17.2x    frame= 4848 fps=409 q=-0.0 size=N/A time=00:03:22.20 bitrate=N/A speed=17.1x    frame= 5036 fps=407 q=-0.0 size=N/A time=00:03:30.04 bitrate=N/A speed=  17x    frame= 5255 fps=408 q=-0.0 size=N/A time=00:03:39.17 bitrate=N/A speed=  17x    frame= 5484 fps=409 q=-0.0 size=N/A time=00:03:48.72 bitrate=N/A speed=17.1x    frame= 5737 fps=412 q=-0.0 size=N/A time=00:03:59.28 bitrate=N/A speed=17.2x    frame= 6008 fps=416 q=-0.0 size=N/A time=00:04:10.58 bitrate=N/A speed=17.4x    frame= 6264 fps=419 q=-0.0 size=N/A time=00:04:21.26 bitrate=N/A speed=17.5x    frame= 6514 fps=421 q=-0.0 size=N/A time=00:04:31.68 bitrate=N/A speed=17.6x    frame= 6759 fps=423 q=-0.0 size=N/A time=00:04:41.90 bitrate=N/A speed=17.6x    frame= 7027 fps=426 q=-0.0 size=N/A time=00:04:53.08 bitrate=N/A speed=17.8x    frame= 7279 fps=428 q=-0.0 size=N/A time=00:05:03.59 bitrate=N/A speed=17.9x    frame= 7540 fps=430 q=-0.0 size=N/A time=00:05:14.48 bitrate=N/A speed=17.9x    frame= 7793 fps=432 q=-0.0 size=N/A time=00:05:25.03 bitrate=N/A speed=  18x    frame= 8036 fps=433 q=-0.0 size=N/A time=00:05:35.16 bitrate=N/A speed=  18x    frame= 8318 fps=436 q=-0.0 size=N/A time=00:05:46.92 bitrate=N/A speed=18.2x    frame= 8560 fps=437 q=-0.0 size=N/A time=00:05:57.02 bitrate=N/A speed=18.2x    frame= 8803 fps=437 q=-0.0 size=N/A time=00:06:07.15 bitrate=N/A speed=18.2x    frame= 9096 fps=441 q=-0.0 size=N/A time=00:06:19.37 bitrate=N/A speed=18.4x    frame= 9342 fps=442 q=-0.0 size=N/A time=00:06:29.63 bitrate=N/A speed=18.4x    frame= 9618 fps=444 q=-0.0 size=N/A time=00:06:41.15 bitrate=N/A speed=18.5x    frame= 9863 fps=445 q=-0.0 size=N/A time=00:06:51.36 bitrate=N/A speed=18.5x    frame=10138 fps=447 q=-0.0 size=N/A time=00:07:02.83 bitrate=N/A speed=18.6x    frame=10425 fps=449 q=-0.0 size=N/A time=00:07:14.80 bitrate=N/A speed=18.7x    frame=10652 fps=449 q=-0.0 size=N/A time=00:07:24.27 bitrate=N/A speed=18.7x    frame=10870 fps=448 q=-0.0 size=N/A time=00:07:33.36 bitrate=N/A speed=18.7x    frame=11107 fps=449 q=-0.0 size=N/A time=00:07:43.25 bitrate=N/A speed=18.7x    frame=11336 fps=448 q=-0.0 size=N/A time=00:07:52.80 bitrate=N/A speed=18.7x    frame=11571 fps=449 q=-0.0 size=N/A time=00:08:02.60 bitrate=N/A speed=18.7x    frame=11814 fps=449 q=-0.0 size=N/A time=00:08:12.74 bitrate=N/A speed=18.7x    frame=12063 fps=450 q=-0.0 size=N/A time=00:08:23.12 bitrate=N/A speed=18.7x    frame=12334 fps=451 q=-0.0 size=N/A time=00:08:34.43 bitrate=N/A speed=18.8x    frame=12611 fps=453 q=-0.0 size=N/A time=00:08:45.98 bitrate=N/A speed=18.9x    frame=12867 fps=453 q=-0.0 size=N/A time=00:08:56.66 bitrate=N/A speed=18.9x    frame=13132 fps=455 q=-0.0 size=N/A time=00:09:07.71 bitrate=N/A speed=  19x    frame=13418 fps=456 q=-0.0 size=N/A time=00:09:19.64 bitrate=N/A speed=  19x    frame=13683 fps=457 q=-0.0 size=N/A time=00:09:30.69 bitrate=N/A speed=19.1x    frame=13959 fps=459 q=-0.0 size=N/A time=00:09:42.20 bitrate=N/A speed=19.1x    frame=14204 fps=459 q=-0.0 size=N/A time=00:09:52.42 bitrate=N/A speed=19.1x    frame=14447 fps=459 q=-0.0 size=N/A time=00:10:02.56 bitrate=N/A speed=19.1x    frame=14681 fps=459 q=-0.0 size=N/A time=00:10:12.32 bitrate=N/A speed=19.1x    frame=14943 fps=460 q=-0.0 size=N/A time=00:10:23.24 bitrate=N/A speed=19.2x    frame=15135 fps=459 q=-0.0 size=N/A time=00:10:31.25 bitrate=N/A speed=19.1x    frame=15371 fps=458 q=-0.0 size=N/A time=00:10:41.09 bitrate=N/A speed=19.1x    frame=15645 fps=460 q=-0.0 size=N/A time=00:10:52.52 bitrate=N/A speed=19.2x    frame=15918 fps=461 q=-0.0 size=N/A time=00:11:03.91 bitrate=N/A speed=19.2x    frame=16191 fps=462 q=-0.0 size=N/A time=00:11:15.29 bitrate=N/A speed=19.3x    frame=16470 fps=463 q=-0.0 size=N/A time=00:11:26.93 bitrate=N/A speed=19.3x    frame=16706 fps=463 q=-0.0 size=N/A time=00:11:36.77 bitrate=N/A speed=19.3x    frame=16953 fps=463 q=-0.0 size=N/A time=00:11:47.08 bitrate=N/A speed=19.3x    frame=17221 fps=464 q=-0.0 size=N/A time=00:11:58.25 bitrate=N/A speed=19.3x    frame=17468 fps=464 q=-0.0 size=N/A time=00:12:08.56 bitrate=N/A speed=19.3x    frame=17705 fps=464 q=-0.0 size=N/A time=00:12:18.44 bitrate=N/A speed=19.3x    frame=17964 fps=464 q=-0.0 size=N/A time=00:12:29.24 bitrate=N/A speed=19.4x    frame=18195 fps=464 q=-0.0 size=N/A time=00:12:38.88 bitrate=N/A speed=19.3x    frame=18422 fps=464 q=-0.0 size=N/A time=00:12:48.35 bitrate=N/A speed=19.3x    frame=18639 fps=463 q=-0.0 size=N/A time=00:12:57.40 bitrate=N/A speed=19.3x    frame=18895 fps=464 q=-0.0 size=N/A time=00:13:08.07 bitrate=N/A speed=19.3x    frame=19154 fps=464 q=-0.0 size=N/A time=00:13:18.88 bitrate=N/A speed=19.3x    frame=19409 fps=464 q=-0.0 size=N/A time=00:13:29.51 bitrate=N/A speed=19.4x    frame=19679 fps=465 q=-0.0 size=N/A time=00:13:40.77 bitrate=N/A speed=19.4x    frame=19931 fps=465 q=-0.0 size=N/A time=00:13:51.28 bitrate=N/A speed=19.4x    frame=20183 fps=466 q=-0.0 size=N/A time=00:14:01.79 bitrate=N/A speed=19.4x    frame=20422 fps=466 q=-0.0 size=N/A time=00:14:11.76 bitrate=N/A speed=19.4x    frame=20683 fps=466 q=-0.0 size=N/A time=00:14:22.65 bitrate=N/A speed=19.4x    frame=20905 fps=466 q=-0.0 size=N/A time=00:14:31.91 bitrate=N/A speed=19.4x    frame=21150 fps=466 q=-0.0 size=N/A time=00:14:42.13 bitrate=N/A speed=19.4x    frame=21405 fps=466 q=-0.0 size=N/A time=00:14:52.76 bitrate=N/A speed=19.4x    frame=21618 fps=466 q=-0.0 size=N/A time=00:15:01.65 bitrate=N/A speed=19.4x    frame=21872 fps=466 q=-0.0 size=N/A time=00:15:12.24 bitrate=N/A speed=19.4x    frame=22125 fps=466 q=-0.0 size=N/A time=00:15:22.79 bitrate=N/A speed=19.4x    frame=22352 fps=466 q=-0.0 size=N/A time=00:15:32.26 bitrate=N/A speed=19.4x    frame=22603 fps=466 q=-0.0 size=N/A time=00:15:42.73 bitrate=N/A speed=19.4x    frame=22869 fps=466 q=-0.0 size=N/A time=00:15:53.82 bitrate=N/A speed=19.5x    frame=23122 fps=467 q=-0.0 size=N/A time=00:16:04.38 bitrate=N/A speed=19.5x    frame=23341 fps=466 q=-0.0 size=N/A time=00:16:13.51 bitrate=N/A speed=19.4x    frame=23596 fps=467 q=-0.0 size=N/A time=00:16:24.14 bitrate=N/A speed=19.5x    frame=23842 fps=467 q=-0.0 size=N/A time=00:16:34.41 bitrate=N/A speed=19.5x    frame=24049 fps=466 q=-0.0 size=N/A time=00:16:43.04 bitrate=N/A speed=19.4x    frame=24260 fps=465 q=-0.0 size=N/A time=00:16:51.84 bitrate=N/A speed=19.4x    frame=24512 fps=466 q=-0.0 size=N/A time=00:17:02.35 bitrate=N/A speed=19.4x    frame=24760 fps=466 q=-0.0 size=N/A time=00:17:12.69 bitrate=N/A speed=19.4x    frame=25019 fps=466 q=-0.0 size=N/A time=00:17:23.50 bitrate=N/A speed=19.4x    frame=25273 fps=466 q=-0.0 size=N/A time=00:17:34.09 bitrate=N/A speed=19.5x    frame=25513 fps=466 q=-0.0 size=N/A time=00:17:44.10 bitrate=N/A speed=19.5x    frame=25772 fps=467 q=-0.0 size=N/A time=00:17:54.90 bitrate=N/A speed=19.5x    frame=25999 fps=467 q=-0.0 size=N/A time=00:18:04.37 bitrate=N/A speed=19.5x    frame=26212 fps=466 q=-0.0 size=N/A time=00:18:13.25 bitrate=N/A speed=19.4x    frame=26488 fps=466 q=-0.0 size=N/A time=00:18:24.77 bitrate=N/A speed=19.5x    frame=26767 fps=467 q=-0.0 size=N/A time=00:18:36.44 bitrate=N/A speed=19.5x    frame=27029 fps=468 q=-0.0 size=N/A time=00:18:47.33 bitrate=N/A speed=19.5x    frame=27274 fps=468 q=-0.0 size=N/A time=00:18:57.55 bitrate=N/A speed=19.5x    frame=27512 fps=468 q=-0.0 size=N/A time=00:19:07.47 bitrate=N/A speed=19.5x    frame=27756 fps=468 q=-0.0 size=N/A time=00:19:17.65 bitrate=N/A speed=19.5x    frame=28021 fps=468 q=-0.0 size=N/A time=00:19:28.70 bitrate=N/A speed=19.5x    frame=28275 fps=468 q=-0.0 size=N/A time=00:19:39.30 bitrate=N/A speed=19.5x    frame=28468 fps=467 q=-0.0 size=N/A time=00:19:47.35 bitrate=N/A speed=19.5x    frame=28717 fps=468 q=-0.0 size=N/A time=00:19:57.73 bitrate=N/A speed=19.5x    frame=28940 fps=467 q=-0.0 size=N/A time=00:20:07.03 bitrate=N/A speed=19.5x    frame=29147 fps=467 q=-0.0 size=N/A time=00:20:15.67 bitrate=N/A speed=19.5x    frame=29386 fps=467 q=-0.0 size=N/A time=00:20:25.64 bitrate=N/A speed=19.5x    frame=29632 fps=467 q=-0.0 size=N/A time=00:20:35.90 bitrate=N/A speed=19.5x    frame=29901 fps=467 q=-0.0 size=N/A time=00:20:47.12 bitrate=N/A speed=19.5x    frame=30166 fps=468 q=-0.0 size=N/A time=00:20:58.17 bitrate=N/A speed=19.5x    frame=30385 fps=467 q=-0.0 size=N/A time=00:21:07.30 bitrate=N/A speed=19.5x    frame=30592 fps=467 q=-0.0 size=N/A time=00:21:15.94 bitrate=N/A speed=19.5x    frame=30825 fps=467 q=-0.0 size=N/A time=00:21:25.65 bitrate=N/A speed=19.5x    frame=31073 fps=467 q=-0.0 size=N/A time=00:21:36.00 bitrate=N/A speed=19.5x    frame=31305 fps=467 q=-0.0 size=N/A time=00:21:45.67 bitrate=N/A speed=19.5x    frame=31558 fps=467 q=-0.0 size=N/A time=00:21:56.23 bitrate=N/A speed=19.5x    frame=31776 fps=466 q=-0.0 size=N/A time=00:22:05.32 bitrate=N/A speed=19.5x    frame=32017 fps=466 q=-0.0 size=N/A time=00:22:15.37 bitrate=N/A speed=19.5x    frame=32241 fps=466 q=-0.0 size=N/A time=00:22:24.71 bitrate=N/A speed=19.4x    frame=32489 fps=466 q=-0.0 size=N/A time=00:22:35.06 bitrate=N/A speed=19.4x    frame=32735 fps=466 q=-0.0 size=N/A time=00:22:45.32 bitrate=N/A speed=19.5x    frame=33001 fps=467 q=-0.0 size=N/A time=00:22:56.41 bitrate=N/A speed=19.5x    frame=33229 fps=467 q=-0.0 size=N/A time=00:23:05.92 bitrate=N/A speed=19.5x    frame=33426 fps=466 q=-0.0 size=N/A time=00:23:14.14 bitrate=N/A speed=19.4x    frame=33563 fps=465 q=-0.0 size=N/A time=00:23:19.85 bitrate=N/A speed=19.4x    frame=33728 fps=463 q=-0.0 size=N/A time=00:23:26.73 bitrate=N/A speed=19.3x    frame=33876 fps=462 q=-0.0 size=N/A time=00:23:32.91 bitrate=N/A speed=19.3x    frame=34064 fps=462 q=-0.0 size=N/A time=00:23:40.75 bitrate=N/A speed=19.3x    frame=34221 fps=461 q=-0.0 size=N/A time=00:23:47.30 bitrate=N/A speed=19.2x    frame=34393 fps=460 q=-0.0 size=N/A time=00:23:54.47 bitrate=N/A speed=19.2x    frame=34553 fps=459 q=-0.0 size=N/A time=00:24:01.14 bitrate=N/A speed=19.1x    frame=34686 fps=457 q=-0.0 size=N/A time=00:24:06.69 bitrate=N/A speed=19.1x    frame=34885 fps=457 q=-0.0 size=N/A time=00:24:14.99 bitrate=N/A speed=19.1x    frame=35112 fps=457 q=-0.0 size=N/A time=00:24:24.46 bitrate=N/A speed=  19x    frame=35324 fps=456 q=-0.0 size=N/A time=00:24:33.30 bitrate=N/A speed=  19x    [Parsed_ssim_10 @ 000002c340e372c0] SSIM Y:0.995247 (23.230455) U:0.995018 (23.025798) V:0.995298 (23.277610) All:0.995217 (23.203430)
[out#0/null @ 000002c3352d0f40] video:15212KiB audio:276888KiB subtitle:0KiB other streams:0KiB global headers:0KiB muxing overhead: unknown
frame=35403 fps=456 q=-0.0 Lsize=N/A time=00:24:36.60 bitrate=N/A speed=  19x    
